PathFileType	4	(X/Y/Z)	Patient4_TMGait_0pt2_02_right_23.trc.trc
DataRate	CameraRate	NumFrames	NumMarkers	Units	OrigDataRate	OrigDataStartFrame	OrigNumFrames
46.052631578947	46.052631578947	5	33	mm	46.052631578947	18	       141
Frame#	Time	R.Midfoot.Superior			Sacral			L.Shoulder			Chest			R.Shoulder			Neck			R.ASIS			L.ASIS			R.Thigh.Superior			R.Thigh.Lateral			R.Thigh.Inferior			R.Patella			L.Thigh.Superior			L.Thigh.Lateral			L.Thigh.Inferior			L.Patella			L.Shank.Superior			L.Shank.Lateral			L.Shank.Inferior			R.Shank.Superior			R.Shank.Lateral			R.Shank.Inferior			R.Heel			R.Midfoot.Lateral			R.Toe			L.Heel			L.Midfoot.Lateral			L.Midfoot.Superior			L.Toe			L.Elbow			L.Wrist			R.Elbow			R.Wrist			
		X1	Y1	Z1	X2	Y2	Z2	X3	Y3	Z3	X4	Y4	Z4	X5	Y5	Z5	X6	Y6	Z6	X7	Y7	Z7	X8	Y8	Z8	X9	Y9	Z9	X10	Y10	Z10	X11	Y11	Z11	X12	Y12	Z12	X13	Y13	Z13	X14	Y14	Z14	X15	Y15	Z15	X16	Y16	Z16	X17	Y17	Z17	X18	Y18	Z18	X19	Y19	Z19	X20	Y20	Z20	X21	Y21	Z21	X22	Y22	Z22	X23	Y23	Z23	X24	Y24	Z24	X25	Y25	Z25	X26	Y26	Z26	X27	Y27	Z27	X28	Y28	Z28	X29	Y29	Z29	X30	Y30	Z30	X31	Y31	Z31	X32	Y32	Z32	X33	Y33	Z33	

18	51.019142857143	1317.538122031727	117.345961795392	610.623867189780	960.247723985599	1003.358892670236	401.427982146753	1180.612017021093	1432.586690707937	246.812112566931	1251.379855227632	1355.815523640780	419.918149041219	1145.857530380377	1429.046149927475	580.292088993510	1138.841616539601	1491.980837431018	402.484599889470	1179.485637728639	941.888711022330	542.490852402460	1189.023459493537	956.802230114739	265.601567853010	1256.767017905420	769.508709766773	515.288516259462	1216.248330326145	655.695875098554	597.328111489742	1297.614723442247	610.657903705982	514.712419356225	1329.770000987618	521.781467636529	539.637705552422	1233.448269396842	744.744200983924	306.522420445361	1150.503492538254	622.389239605371	245.364008872321	1230.808422125765	550.166951655036	318.038454218663	1230.955231100235	478.920516011206	328.238155580311	1193.644043592534	404.986770807996	320.958729011003	1092.069998112288	299.255827835541	274.075739324479	1129.005119128117	185.585607969393	348.075770757377	1298.245256869878	432.705597242452	558.631931743655	1228.522814837181	339.763571445445	637.893964813452	1272.549052933744	236.687622516662	590.659962109132	1140.323840649717	70.518919381500	590.046223057740	1231.470114631035	54.768123518789	652.647100446372	1436.237799449046	61.898333088947	622.339379642421	988.618564480387	38.726039691192	397.061110776127	1057.048040353906	36.295659970769	311.659458689441	1142.531858243812	96.121056615401	334.546566558456	1267.859339929547	45.248748416186	295.909243299419	1304.542899089839	1122.353710307756	104.012003887794	1532.289170358860	997.004366817292	141.514556021473	986.652346948183	1116.388656483804	673.650431352196	947.976873169726	856.948210176464	680.900591531622	
19	51.040857142857	1334.173711499055	114.300929008182	608.079051353132	960.960724302292	1005.132585302444	402.345546468024	1183.918842035762	1433.610904643007	249.635215056489	1252.050932784429	1357.352227601398	423.935422936701	1144.537387259205	1431.789065483551	582.320656837484	1139.917475579166	1493.375424669446	404.523277589900	1178.402775931964	942.711241187379	545.802648295185	1190.884299827373	958.635005578414	268.318694690186	1253.525512802456	768.824215299086	518.888510261162	1210.879149177033	655.119180177219	599.998634570974	1292.125897870890	609.746035054633	517.855992347634	1323.710758045946	523.126308100778	541.798214930847	1231.103250315517	744.421553411850	308.908429002213	1146.418324142353	623.799030004246	246.555062755506	1224.990007618282	550.024655479239	319.174397990926	1223.869468080419	479.226023461682	329.133538013071	1187.172011403259	405.827160654122	321.414635051084	1086.150806683728	299.683966671404	274.321786867689	1123.850724851587	186.066140585628	348.198788615081	1296.948152299340	433.316561204329	559.923212079681	1232.416854506998	335.313666645405	638.680445756128	1282.113597507831	234.724680550464	590.113887009875	1157.554517352195	62.819037394112	588.281255268456	1249.849836236524	48.438548799663	649.817374571204	1455.001096184933	61.758789041212	617.857038078821	984.178698684886	38.690719228857	397.011581799288	1052.592209333524	36.264546661778	311.627480280519	1138.062869784155	96.176698082339	334.467090434968	1263.401731314697	45.331989065250	295.940949569168	1314.103636949134	1127.662943394937	106.358004592954	1548.501953078107	1016.181013390963	145.927754645711	974.852737443915	1125.147094859553	672.235263353996	929.427291315229	866.816625540649	676.865537369280	
20	51.062571428571	1346.122304551877	111.809411456972	605.412643834118	961.915684423057	1006.430202770140	403.795610396863	1186.904833092468	1434.253228936704	252.764522505127	1252.632164384638	1358.639989873035	428.180845444559	1143.358880555161	1434.316077201904	584.651031254668	1140.846801039281	1494.451742919612	406.853650867056	1177.660431893772	943.115759006736	549.400851819067	1192.971361848033	960.290400729683	271.311652235295	1250.955005921145	767.755900101558	522.890785397214	1205.790222381325	653.825809398469	602.527911120282	1287.397792038455	608.412899866709	521.150328482951	1317.893097775349	523.571129522502	543.823331160862	1229.106962994180	743.972744369785	311.464078882014	1142.674659975604	625.098953362748	247.901158731053	1219.513978554041	549.773928262490	320.393287845142	1217.102452517633	479.415457596320	330.113789683426	1181.018495771583	406.535444493367	321.958569717224	1080.460946782555	300.077848219823	274.602411442165	1118.818912215267	186.488201834714	348.380095794875	1295.016589701143	433.298949850348	561.053644875170	1234.560434148101	331.490757714418	639.026211612876	1288.629330542157	233.199296306939	589.314565861388	1170.067233555271	57.786668602713	585.936365662942	1262.900525015739	44.189829363855	646.878863043433	1468.053065756941	60.955783444719	614.041377862059	979.732103086821	38.648415519047	396.965885007563	1048.133611426972	36.226757858357	311.594491732429	1133.594294345417	96.234247104554	334.403985018450	1258.943628948980	45.448238011553	295.975158446049	1323.177618637368	1132.639780042331	109.123450744664	1563.298283737356	1035.094915451804	150.418399177532	965.242413792068	1132.818259106837	671.015093599989	915.295053267319	875.337767571869	672.742602844597	
21	51.084285714286	1353.506129736325	109.690032845222	602.776362105625	963.136121962867	1007.195982805557	405.717800004239	1189.554837313270	1434.523540694689	256.237199016640	1253.142371432735	1359.640168766249	432.669969728474	1142.316240588011	1436.495738453985	587.346332073377	1141.629779826684	1495.168184544146	409.539917807639	1177.301051121063	943.083842736279	553.222168954259	1195.305743298976	961.695227254859	274.602564927165	1249.165762146228	766.279944004067	527.213904862251	1201.131153697779	651.856246392352	604.873761380683	1283.529271234512	606.673134235292	524.486744182615	1312.500979662264	523.124417941162	545.659816947595	1227.582134950033	743.386430934908	314.174710787269	1139.404966024262	626.237307878516	249.405090522064	1214.511250648186	549.389491292343	321.721232316057	1210.804676587418	479.455151060317	331.211786222820	1175.297585170424	407.072347732799	322.619762777061	1075.087961278915	300.427153032042	274.930562249183	1113.945353745084	186.828228191094	348.626864977448	1292.604271712279	432.593127611670	562.019130377693	1235.067355086758	328.131509719855	639.027801575189	1292.226337557832	231.806670591544	588.347277009792	1177.927717288421	54.708488550913	583.294131070209	1270.821298507242	41.594089214438	644.107269599840	1475.769935844042	59.579328147945	611.060371460124	975.281388381227	38.600091569346	396.923833136915	1043.676229303643	36.180906856921	311.560149316124	1129.129849872679	96.290588743265	334.360982756655	1254.488340826071	45.597159480656	296.010557175029	1331.705674494274	1137.251448112279	112.300655817137	1576.634511682272	1053.529639653237	154.984579990318	957.872485998621	1139.067751848879	670.189405776589	905.386428928094	882.080632517303	668.867939261630	
22	51.106000000000	1356.750908676763	107.812372246344	600.273378355954	964.642930763721	1007.436040987432	408.038813871130	1191.889635274418	1434.472712831277	260.085180297095	1253.620130529202	1360.352802686704	437.419677979008	1141.409123659810	1438.246187699057	590.458021762651	1142.287239429080	1495.525103358704	412.636918504614	1177.344732681105	942.646391853965	557.215376241708	1197.905902911723	962.801648702717	278.227055044825	1248.188824912169	764.409160243261	531.748061985988	1197.036757517088	649.328009155858	607.028986978670	1280.542582239684	604.580549172635	527.760655290805	1307.672602573867	521.869741936168	547.288557201815	1226.610479875146	742.659807981980	317.039671714368	1136.701050131268	627.183402928943	251.080331941196	1210.066393180586	548.861027682324	323.197670190877	1205.078001957086	479.326695310965	332.466944942799	1170.077666130429	407.420803255669	323.431333699590	1070.083981715195	300.733921276107	275.325427701078	1109.248380310349	187.073720861742	348.942803336698	1289.885545351154	431.212045263280	562.834307580206	1234.175935572861	325.081580754868	638.807154947790	1293.231858600881	230.302096801697	587.292766667101	1181.544986836471	52.861571254798	580.638432988828	1274.183449897387	40.189006740035	641.710386226672	1478.856617763447	57.831788222085	608.915486384838	970.829441844265	38.548087988283	396.884079439543	1039.223134465509	36.126952987936	311.524758712275	1124.672110511782	96.343344187817	334.339941580813	1250.037313404331	45.774457710769	296.046638955831	1339.647846584778	1141.500054040743	115.862285786226	1588.502481199719	1071.304402355004	159.624943689575	952.717067325706	1143.682985668706	669.944258971697	899.427093503322	886.807953246622	665.576776138974	
